<?xml version="1.0" encoding="UTF-8" standalone="no"?>
<svg
   xmlns:dc="http://purl.org/dc/elements/1.1/"
   xmlns:cc="http://creativecommons.org/ns#"
   xmlns:rdf="http://www.w3.org/1999/02/22-rdf-syntax-ns#"
   xmlns:svg="http://www.w3.org/2000/svg"
   xmlns="http://www.w3.org/2000/svg"
   xmlns:sodipodi="http://sodipodi.sourceforge.net/DTD/sodipodi-0.dtd"
   xmlns:inkscape="http://www.inkscape.org/namespaces/inkscape"
   width="626.15582"
   height="105.28"
   overflow="hidden"
   version="1.1"
   id="svg3965"
   sodipodi:docname="kg-logo-web-v3.svg"
   style="overflow:hidden"
   inkscape:version="0.92.4 (5da689c313, 2019-01-14)">
  <metadata
     id="metadata3969">
    <rdf:RDF>
      <cc:Work
         rdf:about="">
        <dc:format>image/svg+xml</dc:format>
        <dc:type
           rdf:resource="http://purl.org/dc/dcmitype/StillImage" />
        <dc:title></dc:title>
      </cc:Work>
    </rdf:RDF>
  </metadata>
  <sodipodi:namedview
     pagecolor="#ffffff"
     bordercolor="#666666"
     borderopacity="1"
     objecttolerance="10"
     gridtolerance="10"
     guidetolerance="10"
     inkscape:pageopacity="0"
     inkscape:pageshadow="2"
     inkscape:window-width="2186"
     inkscape:window-height="1199"
     id="namedview3967"
     showgrid="false"
     inkscape:zoom="1.8421425"
     inkscape:cx="359.4303"
     inkscape:cy="60.726645"
     inkscape:window-x="7077"
     inkscape:window-y="1186"
     inkscape:window-maximized="0"
     inkscape:current-layer="text3867" />
  <defs
     id="defs3863">
    <clipPath
       id="clip0">
      <path
         d="M 204,307 H 860 V 414 H 204 Z"
         id="path3842"
         inkscape:connector-curvature="0"
         style="clip-rule:evenodd;fill-rule:evenodd" />
    </clipPath>
    <clipPath
       id="clip1">
      <path
         d="m 204,324 h 74 v 72 h -74 z"
         id="path3845"
         inkscape:connector-curvature="0"
         style="clip-rule:evenodd;fill-rule:evenodd" />
    </clipPath>
    <clipPath
       id="clip2">
      <path
         d="m 204,324 h 74 v 72 h -74 z"
         id="path3848"
         inkscape:connector-curvature="0"
         style="clip-rule:evenodd;fill-rule:evenodd" />
    </clipPath>
    <clipPath
       id="clip3">
      <path
         d="m 204,324 h 478 v 72 H 204 Z"
         id="path3851"
         inkscape:connector-curvature="0"
         style="clip-rule:evenodd;fill-rule:evenodd" />
    </clipPath>
    <clipPath
       id="clip4">
      <path
         d="m 301,316 h 74 v 88 h -74 z"
         id="path3854"
         inkscape:connector-curvature="0"
         style="clip-rule:evenodd;fill-rule:evenodd" />
    </clipPath>
    <clipPath
       id="clip5">
      <path
         d="m 301,316 h 74 v 88 h -74 z"
         id="path3857"
         inkscape:connector-curvature="0"
         style="clip-rule:evenodd;fill-rule:evenodd" />
    </clipPath>
    <clipPath
       id="clip6">
      <path
         d="m 301,316 h 74 v 88 h -74 z"
         id="path3860"
         inkscape:connector-curvature="0"
         style="clip-rule:evenodd;fill-rule:evenodd" />
    </clipPath>
  </defs>
  <g
     clip-path="url(#clip0)"
     transform="translate(-204.50375,-307.5)"
     id="g3963">
    <g
       aria-label="Knowledge Graph Lab"
       transform="translate(432.057,371)"
       style="font-weight:600;font-size:40px;font-family:'Segoe UI', 'Segoe UI_MSFontService', sans-serif;fill:#006296"
       id="text3867">
      <path
         d="M 24.648438,0 H 18.59375 L 8.8476562,-12.8125 q -0.546875,-0.722656 -0.6640625,-0.976562 H 8.1054687 V 0 H 3.4570312 v -28.007813 h 4.6484375 v 13.164063 h 0.078125 q 0.234375,-0.429687 0.6640625,-0.957031 l 9.3945318,-12.207032 h 5.566406 L 12.8125,-14.570312 Z"
         style="font-weight:600;font-size:40px;font-family:'Segoe UI', 'Segoe UI_MSFontService', sans-serif;fill:#006296"
         id="path3971" />
      <path
         d="m 45.214844,0 h -4.53125 v -11.269531 q 0,-5.605469 -3.964844,-5.605469 -2.070312,0 -3.417969,1.5625 -1.347656,1.542969 -1.347656,3.90625 V 0 h -4.550781 v -20 h 4.550781 v 3.320312 h 0.07813 q 2.246094,-3.789062 6.484375,-3.789062 3.261719,0 4.980469,2.128906 1.71875,2.109375 1.71875,6.113282 z"
         style="font-weight:600;font-size:40px;font-family:'Segoe UI', 'Segoe UI_MSFontService', sans-serif;fill:#006296"
         id="path3973" />
      <path
         d="m 59.628906,0.46875 q -4.628906,0 -7.402343,-2.7929687 -2.753907,-2.8125001 -2.753907,-7.4414063 0,-5.039062 2.871094,-7.871094 2.890625,-2.832031 7.773438,-2.832031 4.6875,0 7.304687,2.753906 2.617188,2.753907 2.617188,7.636719 0,4.7851562 -2.832032,7.6757813 -2.8125,2.8710937 -7.578125,2.8710937 z m 0.214844,-17.324219 q -2.65625,0 -4.199219,1.855469 -1.542968,1.855469 -1.542968,5.1171875 0,3.1445312 1.5625,4.9609375 1.5625,1.796875 4.179687,1.796875 2.675781,0 4.101563,-1.7773438 1.445312,-1.7773437 1.445312,-5.0585937 0,-3.3007815 -1.445312,-5.0976565 -1.425782,-1.796875 -4.101563,-1.796875 z"
         style="font-weight:600;font-size:40px;font-family:'Segoe UI', 'Segoe UI_MSFontService', sans-serif;fill:#006296"
         id="path3975" />
      <path
         d="M 101.5625,-20 95.664063,0 h -4.746094 l -3.632813,-13.554687 q -0.214843,-0.78125 -0.273437,-1.757813 h -0.07813 q -0.03906,0.664063 -0.351563,1.71875 L 82.636719,0 h -4.648438 l -5.878906,-20 h 4.6875 l 3.632813,14.4140625 q 0.175781,0.6445312 0.234375,1.71875 h 0.136718 Q 80.859375,-4.6875 81.113281,-5.625 L 85.15625,-20 h 4.257813 l 3.59375,14.4726562 q 0.175781,0.6835938 0.253906,1.7187501 h 0.136719 Q 93.4375,-4.53125 93.691406,-5.5273438 L 97.246094,-20 Z"
         style="font-weight:600;font-size:40px;font-family:'Segoe UI', 'Segoe UI_MSFontService', sans-serif;fill:#006296"
         id="path3977" />
      <path
         d="m 109.45312,0 h -4.55078 v -29.609375 h 4.55078 z"
         style="font-weight:600;font-size:40px;font-family:'Segoe UI', 'Segoe UI_MSFontService', sans-serif;fill:#006296"
         id="path3979" />
      <path
         d="m 132.30469,-8.7695312 h -13.63282 q 0.0781,2.7734374 1.69922,4.2773437 1.64063,1.5039063 4.49219,1.5039063 3.20313,0 5.87891,-1.9140626 V -1.25 q -2.73438,1.71875 -7.22657,1.71875 -4.41406,0 -6.93359,-2.7148437 -2.5,-2.7343751 -2.5,-7.6757813 0,-4.667969 2.75391,-7.597656 2.77343,-2.949219 6.875,-2.949219 4.10156,0 6.34765,2.636719 2.2461,2.636719 2.2461,7.324219 z m -4.375,-3.2031248 q -0.0195,-2.441406 -1.15235,-3.789063 -1.13281,-1.367187 -3.125,-1.367187 -1.95312,0 -3.32031,1.425781 -1.34766,1.425781 -1.66016,3.730469 z"
         style="font-weight:600;font-size:40px;font-family:'Segoe UI', 'Segoe UI_MSFontService', sans-serif;fill:#006296"
         id="path3981" />
      <path
         d="m 154.80469,0 h -4.53125 v -3.3984375 h -0.0781 q -2.1875,3.8671875 -6.73828,3.8671875 -3.6914,0 -5.91797,-2.6757812 -2.20703,-2.6953126 -2.20703,-7.3242188 0,-4.960937 2.44141,-7.949219 2.46094,-2.988281 6.54297,-2.988281 4.04297,0 5.8789,3.242187 h 0.0781 v -12.382812 h 4.53125 z m -4.47266,-9.140625 v -2.617187 q 0,-2.128907 -1.38672,-3.613282 -1.38672,-1.484375 -3.53515,-1.484375 -2.53907,0 -4.00391,1.894532 -1.44531,1.894531 -1.44531,5.2539058 0,3.0468749 1.38672,4.8242187 1.40625,1.7578125 3.76953,1.7578125 2.32422,0 3.76953,-1.6992188 1.44531,-1.71875 1.44531,-4.3164062 z"
         style="font-weight:600;font-size:40px;font-family:'Segoe UI', 'Segoe UI_MSFontService', sans-serif;fill:#006296"
         id="path3983" />
      <path
         d="m 178.96484,-1.6015625 q 0,11.015625 -11.07421,11.015625 -3.90625,0 -6.81641,-1.3085938 v -4.140625 q 3.28125,1.8750001 6.23047,1.8750001 7.1289,0 7.1289,-7.0117188 v -2.1875 h -0.0781 q -2.24609,3.828125 -6.75781,3.828125 -3.65235,0 -5.89844,-2.65625 -2.22656,-2.6757813 -2.22656,-7.1679687 0,-5.0976563 2.40234,-8.1054693 2.40234,-3.007812 6.60156,-3.007812 3.96485,0 5.87891,3.242187 h 0.0781 V -20 h 4.53125 z m -4.49218,-7.5585937 v -2.5976558 q 0,-2.109375 -1.40625,-3.59375 -1.38672,-1.503907 -3.47657,-1.503907 -2.57812,0 -4.04296,1.914063 -1.44532,1.894531 -1.44532,5.3124998 0,2.9492187 1.38672,4.7265624 1.40625,1.7578126 3.71094,1.7578126 2.34375,0 3.80859,-1.6796876 1.46485,-1.6992187 1.46485,-4.3359374 z"
         style="font-weight:600;font-size:40px;font-family:'Segoe UI', 'Segoe UI_MSFontService', sans-serif;fill:#006296"
         id="path3985" />
      <path
         d="m 201.83594,-8.7695312 h -13.63281 q 0.0781,2.7734374 1.69921,4.2773437 1.64063,1.5039063 4.49219,1.5039063 3.20313,0 5.87891,-1.9140626 V -1.25 q -2.73438,1.71875 -7.22656,1.71875 -4.41407,0 -6.9336,-2.7148437 -2.5,-2.7343751 -2.5,-7.6757813 0,-4.667969 2.75391,-7.597656 2.77344,-2.949219 6.875,-2.949219 4.10156,0 6.34765,2.636719 2.2461,2.636719 2.2461,7.324219 z m -4.375,-3.2031248 q -0.0195,-2.441406 -1.15235,-3.789063 -1.13281,-1.367187 -3.125,-1.367187 -1.95312,0 -3.32031,1.425781 -1.34765,1.425781 -1.66015,3.730469 z"
         style="font-weight:600;font-size:40px;font-family:'Segoe UI', 'Segoe UI_MSFontService', sans-serif;fill:#006296"
         id="path3987" />
      <path
         d="m 239.53125,-1.9140625 q -4.375,2.3828125 -9.74609,2.3828125 -6.21094,0 -10.0586,-3.8671875 -3.84765,-3.8671875 -3.84765,-10.2343745 0,-6.503907 4.19922,-10.664063 4.21875,-4.179688 10.70312,-4.179688 4.66797,0 7.85156,1.367188 v 4.785156 q -3.22265,-2.148437 -7.67578,-2.148437 -4.47265,0 -7.34375,2.949218 -2.85156,2.949219 -2.85156,7.636719 0,4.824219 2.46094,7.5976565 2.46093,2.7539063 6.67968,2.7539063 2.89063,0 5,-1.1132813 v -6.6601565 h -5.89843 v -3.90625 h 10.52734 z"
         style="font-weight:600;font-size:40px;font-family:'Segoe UI', 'Segoe UI_MSFontService', sans-serif;fill:#006296"
         id="path3989" />
      <path
         d="m 256.66016,-15.683594 q -0.82032,-0.644531 -2.36328,-0.644531 -2.01172,0 -3.35938,1.816406 -1.34766,1.816407 -1.34766,4.9414065 V 0 h -4.53125 v -20 h 4.53125 v 4.121094 h 0.0781 q 0.66406,-2.109375 2.03125,-3.28125 1.38672,-1.191407 3.08594,-1.191407 1.23047,0 1.875,0.371094 z"
         style="font-weight:600;font-size:40px;font-family:'Segoe UI', 'Segoe UI_MSFontService', sans-serif;fill:#006296"
         id="path3991" />
      <path
         d="m 275.25391,0 h -4.39453 v -3.125 h -0.0781 q -2.07031,3.59375 -6.07422,3.59375 -2.94922,0 -4.6289,-1.6015625 -1.66016,-1.6015625 -1.66016,-4.2382813 0,-5.6640622 6.52344,-6.6015622 l 5.9375,-0.839844 q 0,-4.277344 -4.0625,-4.277344 -3.57422,0 -6.44532,2.460938 v -3.964844 q 3.16407,-1.875 7.30469,-1.875 7.57813,0 7.57813,7.460938 z m -4.375,-9.8242187 -4.19922,0.5859375 q -1.95313,0.2539062 -2.94922,0.9570312 -0.97656,0.6835937 -0.97656,2.421875 0,1.2695312 0.89843,2.0898438 0.91797,0.8007812 2.44141,0.8007812 2.07031,0 3.41797,-1.4453125 1.36719,-1.4648438 1.36719,-3.671875 z"
         style="font-weight:600;font-size:40px;font-family:'Segoe UI', 'Segoe UI_MSFontService', sans-serif;fill:#006296"
         id="path3993" />
      <path
         d="m 285.37109,-2.9492187 h -0.0781 V 9.1992187 h -4.53125 V -20 h 4.53125 v 3.515625 h 0.0781 q 2.32422,-3.984375 6.79688,-3.984375 3.80859,0 5.9375,2.675781 2.12891,2.675782 2.12891,7.1875 0,5.0000002 -2.40235,8.0078128 -2.40234,3.00781245 -6.5625,3.00781245 -3.82812,0 -5.89844,-3.35937495 z m -0.11718,-7.8906253 v 2.480469 q 0,2.1875 1.38672,3.7109375 1.40625,1.5234375 3.55468,1.5234375 2.51953,0 3.94532,-1.953125 1.44531,-1.9726563 1.44531,-5.488281 0,-2.949219 -1.34766,-4.609375 -1.32812,-1.679688 -3.61328,-1.679688 -2.42187,0 -3.90625,1.71875 -1.46484,1.71875 -1.46484,4.296875 z"
         style="font-weight:600;font-size:40px;font-family:'Segoe UI', 'Segoe UI_MSFontService', sans-serif;fill:#006296"
         id="path3995" />
      <path
         d="m 322.67578,0 h -4.53125 v -10.9375 q 0,-5.9375 -3.96484,-5.9375 -1.99219,0 -3.35938,1.71875 -1.36718,1.71875 -1.36718,4.394531 V 0 h -4.55079 v -29.609375 h 4.55079 v 12.929687 h 0.0781 q 2.26563,-3.789062 6.48438,-3.789062 6.66015,0 6.66015,8.144531 z"
         style="font-weight:600;font-size:40px;font-family:'Segoe UI', 'Segoe UI_MSFontService', sans-serif;fill:#006296"
         id="path3997" />
      <path
         d="m 343.42676,0 v -28.007813 h 1.93359 v 26.2500005 h 11.23047 V 0 Z"
         style="font-weight:300"
         id="path3999" />
      <path
         d="m 373.34863,0 v -4.0039063 h -0.0781 q -0.95703,2.0507813 -2.79297,3.28125005 -1.81641,1.2109375 -4.04297,1.2109375 -2.85156,0 -4.51172,-1.60156255 -1.66015,-1.6015624 -1.66015,-4.0429687 0,-5.234375 6.93359,-6.328125 l 6.15234,-0.917969 q 0,-6.445312 -4.84375,-6.445312 -3.30078,0 -6.42578,2.65625 v -2.167969 q 1.11328,-0.878906 3.00781,-1.503906 1.91407,-0.625 3.59375,-0.625 3.08594,0 4.76563,1.914062 1.69922,1.914063 1.69922,5.566407 V 0 Z m -5.50781,-9.9609375 q -3.14453,0.4492188 -4.41406,1.4648438 -1.26953,0.9960937 -1.26953,3.2617187 0,1.7773438 1.17187,2.9296875 1.19141,1.1523437 3.30078,1.1523437 2.89063,0 4.80469,-2.1289062 1.91406,-2.1484375 1.91406,-5.5273437 v -1.9531253 z"
         style="font-weight:300"
         id="path4001" />
      <path
         d="m 383.03613,-3.5546875 h -0.0781 V 0 h -1.79688 v -29.609375 h 1.79688 v 13.730469 h 0.0781 q 1.07422,-2.207032 3.06641,-3.398438 2.01172,-1.210937 4.41406,-1.210937 3.8086,0 5.9375,2.636718 2.14844,2.617188 2.14844,7.128907 0,5.019531 -2.48047,8.1249998 -2.48047,3.08593745 -6.44531,3.08593745 -4.49219,0 -6.64063,-4.04296875 z m -0.0781,-7.4414065 v 2.5195315 q 0,3.0078125 1.89453,5.1757813 1.89453,2.1484374 4.98047,2.1484374 3.0664,0 4.98047,-2.6171874 1.91406,-2.6367188 1.91406,-6.9140628 0,-3.75 -1.75781,-5.957031 -1.75782,-2.207031 -4.6875,-2.207031 -3.4961,0 -5.41016,2.34375 -1.91406,2.34375 -1.91406,5.507812 z"
         style="font-weight:300"
         id="path4003" />
    </g>
    <path
       d="M 408.5,307.5 V 412.78"
       stroke-miterlimit="8"
       id="path3869"
       inkscape:connector-curvature="0"
       style="fill:none;fill-rule:evenodd;stroke:#006296;stroke-width:1.33333004;stroke-miterlimit:8" />
    <g
       clip-path="url(#clip1)"
       id="g3899">
      <g
         clip-path="url(#clip2)"
         id="g3897">
        <g
           clip-path="url(#clip3)"
           id="g3895">
          <path
             d="M 97.097,64.9832 H 94.9561 V 7.68212 h 2.1409 z"
             stroke-miterlimit="10"
             transform="matrix(1,0,0,1.00328,204,324.117)"
             id="path3871"
             inkscape:connector-curvature="0"
             style="fill:#006296;stroke:#000000;stroke-width:0.314841;stroke-miterlimit:10" />
          <path
             d="m 112.839,32.3657 c 1.259,-3.1485 3.4,-5.9191 6.171,-7.8081 2.645,-1.889 5.793,-2.8965 8.941,-2.8965 4.534,0 7.934,1.2593 10.201,3.904 2.267,2.6447 3.401,6.5487 3.401,11.7121 v 27.8319 h -2.141 V 37.1512 c 0,-4.5337 -1.008,-7.934 -2.771,-10.0749 -1.889,-2.1409 -4.786,-3.2743 -8.69,-3.2743 -3.526,0 -7.052,1.3853 -9.571,3.904 -2.77,2.7706 -4.659,6.2968 -5.415,10.0749 v 27.2023 h -2.141 V 22.4167 h 2.141 v 9.949 z"
             stroke-miterlimit="10"
             transform="matrix(1,0,0,1.00328,204,324.117)"
             id="path3873"
             inkscape:connector-curvature="0"
             style="fill:#006296;stroke:#000000;stroke-width:0.314841;stroke-miterlimit:10" />
          <path
             d="M 157.924,64.9832 V 28.3357 h -7.43 v -2.1409 h 7.43 v -6.1709 c 0,-3.904 1.008,-7.0524 3.023,-9.1934 2.141,-2.26682 5.037,-3.40025 8.186,-3.27432 1.763,0 3.4,0.25188 5.037,0.62969 l -0.378,2.01493 c -1.511,-0.37776 -3.148,-0.62963 -4.659,-0.62963 -2.519,-0.12594 -4.912,0.88153 -6.675,2.77063 -1.763,2.1409 -2.645,4.9115 -2.393,7.808 v 6.045 h 11.209 v 2.1409 h -11.209 v 36.6475 z"
             stroke-miterlimit="10"
             transform="matrix(1,0,0,1.00328,204,324.117)"
             id="path3875"
             inkscape:connector-curvature="0"
             style="fill:#006296;stroke:#000000;stroke-width:0.314841;stroke-miterlimit:10" />
          <path
             d="m 176.815,42.8184 c 0,-3.7781 0.755,-7.5562 2.393,-10.9565 1.385,-3.1484 3.778,-5.6671 6.674,-7.5562 2.897,-1.7631 6.297,-2.7706 9.697,-2.7706 6.927,-0.1259 13.349,3.7781 16.246,10.0749 1.637,3.4003 2.393,7.1784 2.393,10.9565 v 1.8891 c 0.126,3.778 -0.756,7.5561 -2.267,10.9564 -1.385,3.1484 -3.778,5.6672 -6.549,7.5562 -2.896,1.7631 -6.297,2.7706 -9.697,2.7706 -6.926,0.1259 -13.349,-3.904 -16.246,-10.2008 -1.637,-3.4003 -2.392,-7.0525 -2.392,-10.8306 z m 2.141,1.7631 c 0,3.4003 0.629,6.6746 2.141,9.6971 1.259,2.7706 3.274,5.1634 5.919,6.9265 2.518,1.6372 5.541,2.5187 8.563,2.5187 4.534,0.126 8.942,-1.889 11.838,-5.4152 3.023,-3.6522 4.534,-8.3118 4.534,-14.1049 v -1.2594 c 0,-3.4003 -0.756,-6.6746 -2.141,-9.6971 -1.259,-2.7706 -3.274,-5.1634 -5.919,-6.9265 -2.519,-1.6372 -5.541,-2.5187 -8.564,-2.5187 -4.659,-0.126 -9.067,1.889 -11.838,5.5412 -3.148,3.904 -4.785,8.9415 -4.659,13.9789 v 1.2594 z"
             stroke-miterlimit="10"
             transform="matrix(1,0,0,1.00328,204,324.117)"
             id="path3877"
             inkscape:connector-curvature="0"
             style="fill:#006296;stroke:#000000;stroke-width:0.314841;stroke-miterlimit:10" />
          <path
             d="m 243.057,23.9279 -2.77,-0.2519 c -3.401,-0.1259 -6.675,1.1335 -9.068,3.5263 -2.644,2.6446 -4.282,6.1708 -4.785,9.823 v 27.832 h -2.141 V 22.4167 h 2.141 v 8.8155 c 1.007,-2.7706 2.77,-5.2893 5.163,-7.0524 2.519,-1.7631 5.541,-2.7706 8.69,-2.6447 1.007,0 2.015,0.126 3.022,0.5038 z"
             stroke-miterlimit="10"
             transform="matrix(1,0,0,1.00328,204,324.117)"
             id="path3879"
             inkscape:connector-curvature="0"
             style="fill:#006296;stroke:#000000;stroke-width:0.314841;stroke-miterlimit:10" />
          <path
             d="m 281.72,64.9832 h -2.141 V 36.3956 c 0,-4.2818 -1.008,-7.4302 -2.771,-9.5711 -1.889,-2.141 -4.785,-3.1485 -8.815,-3.1485 -4.66,0 -8.942,2.2669 -11.461,6.1709 -1.763,2.3928 -2.896,5.2894 -3.526,8.1859 v 26.9504 h -2.141 V 22.4167 h 2.141 v 10.0749 c 1.26,-3.2744 3.401,-6.045 6.171,-8.0599 5.289,-3.6522 12.216,-3.7781 17.631,-0.5038 2.393,1.8891 4.03,4.6597 4.408,7.6821 1.259,-3.0224 3.4,-5.5412 6.171,-7.3043 2.896,-1.7631 6.171,-2.7706 9.571,-2.7706 4.534,0 8.06,1.2594 10.201,3.9041 2.141,2.6446 3.4,6.5486 3.4,11.712 v 27.832 h -2.141 V 37.4031 c 0,-4.6596 -0.881,-8.0599 -2.77,-10.3268 -1.889,-2.2668 -4.786,-3.2743 -8.816,-3.2743 -4.911,-0.126 -9.445,2.2668 -12.342,6.1709 -1.511,1.889 -2.518,4.2818 -2.896,6.8005 z"
             stroke-miterlimit="10"
             transform="matrix(1,0,0,1.00328,204,324.117)"
             id="path3881"
             inkscape:connector-curvature="0"
             style="fill:#006296;stroke:#000000;stroke-width:0.314841;stroke-miterlimit:10" />
          <path
             d="m 350.859,64.9832 c -0.63,-2.5187 -0.882,-5.1634 -0.756,-7.8081 -1.637,2.7706 -4.03,4.9116 -6.926,6.2969 -3.023,1.5112 -6.423,2.2668 -9.823,2.2668 -3.401,0.1259 -6.801,-1.0075 -9.446,-3.1484 -2.392,-2.1409 -3.652,-5.1634 -3.652,-8.3118 0,-3.904 2.015,-7.4303 5.29,-9.4452 3.526,-2.3928 8.186,-3.5263 14.105,-3.6522 h 10.452 v -6.1709 c 0.126,-3.1484 -1.007,-6.1709 -3.4,-8.3118 -2.267,-2.015 -5.415,-2.8965 -9.571,-2.8965 -3.526,-0.126 -6.927,0.8815 -9.697,3.0225 -2.393,1.6371 -3.904,4.4077 -3.904,7.4302 l -2.141,-0.1259 c 0,-3.5263 1.763,-6.8006 4.533,-8.8156 3.149,-2.5187 7.179,-3.7781 11.209,-3.6521 4.533,0 8.186,1.1334 10.956,3.4002 2.771,2.3928 4.282,6.045 4.156,9.6971 v 20.4017 c 0,4.6597 0.378,7.8081 1.134,9.5712 v 0.3778 h -2.519 z m -17.505,-1.3853 c 3.652,0.1259 7.178,-0.8816 10.326,-2.6447 2.897,-1.7631 5.164,-4.4077 6.423,-7.5562 V 43.3221 h -9.823 c -6.045,0 -10.704,1.2594 -13.979,3.6522 -2.393,1.6372 -3.904,4.4078 -3.904,7.3043 0,2.5187 1.134,5.0374 3.149,6.6746 2.141,1.8891 4.911,2.7706 7.808,2.6447 z"
             stroke-miterlimit="10"
             transform="matrix(1,0,0,1.00328,204,324.117)"
             id="path3883"
             inkscape:connector-curvature="0"
             style="fill:#006296;stroke:#000000;stroke-width:0.314841;stroke-miterlimit:10" />
          <path
             d="m 370.631,9.6971 v 11.4602 h 9.697 v 2.1409 h -9.697 v 31.4841 c -0.126,2.2669 0.378,4.6597 1.511,6.6747 1.134,1.5112 3.023,2.3928 4.912,2.1409 1.385,0 2.77,-0.1259 4.156,-0.3778 l 0.377,2.015 c -1.511,0.3778 -2.896,0.5037 -4.407,0.5037 -3.149,0 -5.29,-0.8815 -6.675,-2.5187 -1.385,-1.6372 -2.015,-4.4078 -2.015,-8.1859 v -31.736 h -7.934 v -2.1409 h 7.934 V 9.6971 Z"
             stroke-miterlimit="10"
             transform="matrix(1,0,0,1.00328,204,324.117)"
             id="path3885"
             inkscape:connector-curvature="0"
             style="fill:#006296;stroke:#000000;stroke-width:0.314841;stroke-miterlimit:10" />
          <path
             d="m 390.655,9.6971 c 0,-0.62968 0.252,-1.13342 0.629,-1.51123 0.378,-0.37781 1.008,-0.62969 1.512,-0.62969 1.259,0 2.141,1.0075 2.267,2.26686 0,0.62966 -0.252,1.13346 -0.63,1.51126 -0.378,0.3778 -1.008,0.6297 -1.511,0.6297 -1.26,-0.126 -2.267,-1.0075 -2.267,-2.2669 z m 3.274,55.2861 h -2.141 V 21.1573 h 2.141 z"
             stroke-miterlimit="10"
             transform="matrix(1,0,0,1.00328,204,324.117)"
             id="path3887"
             inkscape:connector-curvature="0"
             style="fill:#006296;stroke:#000000;stroke-width:0.314841;stroke-miterlimit:10" />
          <path
             d="m 422.265,63.5979 c 3.4,0.1259 6.8,-1.0075 9.571,-3.0225 2.519,-2.1409 4.03,-5.1634 4.156,-8.5637 h 2.141 c -0.126,3.9041 -1.763,7.4303 -4.786,9.949 -3.148,2.5187 -7.052,3.904 -11.082,3.7781 -4.912,0.2519 -9.571,-2.015 -12.72,-5.7931 -3.148,-3.904 -4.659,-9.0674 -4.659,-15.742 v -1.3853 c 0,-6.4228 1.511,-11.5862 4.659,-15.4902 3.023,-3.7781 7.682,-5.919 12.594,-5.7931 4.156,-0.1259 8.06,1.2594 11.208,4.03 3.023,2.7706 4.66,6.6746 4.66,10.8305 h -2.141 c 0,-3.5262 -1.511,-6.8005 -4.03,-9.1933 -2.645,-2.3928 -6.171,-3.6522 -9.697,-3.5263 -4.282,-0.2518 -8.438,1.7632 -11.208,5.1634 -2.645,3.4003 -4.03,8.1859 -4.03,14.2309 v 1.3853 c 0,5.919 1.385,10.5786 4.03,13.9789 2.77,3.5262 6.926,5.4153 11.334,5.1634 z"
             stroke-miterlimit="10"
             transform="matrix(1,0,0,1.00328,204,324.117)"
             id="path3889"
             inkscape:connector-curvature="0"
             style="fill:#006296;stroke:#000000;stroke-width:0.314841;stroke-miterlimit:10" />
          <path
             d="m 474.906,54.5305 c 0,-5.1634 -4.408,-8.6896 -13.223,-10.5787 -5.289,-1.1334 -8.942,-2.5187 -11.083,-4.4078 -2.14,-1.889 -3.274,-4.5337 -3.148,-7.3043 0,-3.0225 1.511,-5.919 3.904,-7.6821 3.023,-2.1409 6.675,-3.1484 10.327,-3.0225 3.904,-0.2518 7.808,1.0075 11.082,3.2744 2.771,2.1409 4.282,5.4152 4.156,8.8155 h -2.141 c 0,-2.7706 -1.385,-5.5412 -3.652,-7.1784 -2.77,-2.0149 -6.045,-3.0224 -9.445,-2.8965 -3.149,-0.1259 -6.297,0.6297 -8.816,2.3928 -2.015,1.3853 -3.274,3.6522 -3.274,6.0449 -0.126,1.6372 0.378,3.1485 1.259,4.5338 1.134,1.2593 2.393,2.2668 4.03,2.8965 2.519,1.1334 5.29,2.015 8.06,2.5187 2.897,0.6297 5.667,1.5113 8.312,2.8966 1.763,0.8815 3.4,2.2668 4.408,3.904 1.007,1.6372 1.385,3.6521 1.385,5.5412 0.126,3.2743 -1.511,6.2968 -4.156,8.0599 -3.148,2.1409 -6.926,3.2744 -10.83,3.0225 -4.156,0.2519 -8.186,-0.8816 -11.586,-3.2743 -2.771,-1.8891 -4.408,-5.0375 -4.408,-8.3119 h 2.141 c 0.126,2.7707 1.637,5.4153 3.904,6.9266 2.896,1.7631 6.422,2.6446 9.823,2.5187 3.274,0.1259 6.548,-0.7556 9.319,-2.6447 2.267,-1.0075 3.526,-3.4003 3.652,-6.0449 z"
             stroke-miterlimit="10"
             transform="matrix(1,0,0,1.00328,204,324.117)"
             id="path3891"
             inkscape:connector-curvature="0"
             style="fill:#006296;stroke:#000000;stroke-width:0.314841;stroke-miterlimit:10" />
          <path
             d="m 52.1377,35.0103 h 0.3778 c 2.8965,-0.7556 5.0374,-3.5262 5.0374,-6.5487 L 57.427,7.30431 h 7.8081 V 28.4616 c 0,7.3043 -5.5412,13.4752 -12.7196,14.2308 h -0.2519 z m -2.3928,7.8081 H 49.3671 C 42.1887,42.0628 36.6475,36.0178 36.6475,28.7135 V 7.30431 h 7.8081 V 28.3357 c 0,3.0225 2.1409,5.7931 5.0374,6.5487 0.1259,0 0.2519,0 0.3778,0.1259 z M 5.91901,7.30431 H 32.7435 V 14.9864 H 5.91901 Z M 15.6161,42.4406 V 17.0014 h 7.6821 v 25.4392 z m 6.4228,9.823 h -2.5188 l -2.0149,7.934 -2.2669,-7.934 h -1.889 l -2.2669,7.934 -1.88904,-7.934 H 6.67463 l 3.40027,12.5937 h 2.015 l 2.2669,-7.6822 2.2668,7.6822 h 2.015 z M 65.2351,64.8573 V 52.2636 h -2.5188 v 7.6821 L 57.6789,52.2636 H 55.538 v 12.5937 h 2.5187 v -7.6822 l 5.0374,7.6822 z m -17.5052,0 v -2.141 h -5.7931 v -3.0224 h 4.9115 v -2.141 h -4.9115 v -2.8965 h 5.7931 v -2.1409 h -8.3118 v 12.5936 h 8.3118 z m -16.7495,0 V 52.2636 H 28.4616 V 64.8573 Z M 7.68212,0 H 64.7313 c 4.03,0 7.1784,3.27435 7.1784,7.17838 V 64.2276 c 0,4.0299 -3.2744,7.1783 -7.1784,7.1783 H 7.68212 c -4.02996,0 -7.178374,-3.2743 -7.178374,-7.1783 V 7.17838 C 0.503746,3.27435 3.65216,0 7.68212,0 Z"
             transform="matrix(1,0,0,1.00328,204,324.117)"
             id="path3893"
             inkscape:connector-curvature="0"
             style="fill:#006296;fill-rule:evenodd" />
        </g>
      </g>
    </g>
    <g
       clip-path="url(#clip4)"
       id="g3961">
      <g
         clip-path="url(#clip5)"
         id="g3959">
        <g
           clip-path="url(#clip6)"
           id="g3957">
          <path
             d="M 67.0004,22.5432 39.7549,5.99841"
             transform="matrix(1,0,0,1.00624,301,316)"
             id="path3901"
             inkscape:connector-curvature="0"
             style="fill:none;stroke:#006296;stroke-width:2.63027" />
          <path
             d="m -21.2592,69.5797 c 0,1.7092 -1.4331,3.0948 -3.2009,3.0948 -1.7679,0 -3.201,-1.3856 -3.201,-3.0948 0,-1.7092 1.4331,-3.0948 3.201,-3.0948 1.7678,0 3.2009,1.3856 3.2009,3.0948 z"
             transform="matrix(-4.3984e-8,-1.00624,1,-4.37114e-8,301,316)"
             id="path3903"
             inkscape:connector-curvature="0"
             style="fill:none;stroke:#006296;stroke-width:2.63027;stroke-linejoin:round" />
          <path
             d="m -1.31514,37.0531 c 0,1.7092 -1.43312,3.0948 -3.20097,3.0948 -1.76785,0 -3.20098,-1.3856 -3.20098,-3.0948 0,-1.7092 1.43313,-3.0948 3.20098,-3.0948 1.76785,0 3.20097,1.3856 3.20097,3.0948 z"
             transform="matrix(-4.3984e-8,-1.00624,1,-4.37114e-8,301,316)"
             id="path3905"
             inkscape:connector-curvature="0"
             style="fill:none;stroke:#006296;stroke-width:2.63027;stroke-linejoin:round" />
          <path
             d="m 69.6662,27.5651 0.1443,32.6475"
             transform="matrix(1,0,0,1.00624,301,316)"
             id="path3907"
             inkscape:connector-curvature="0"
             style="fill:none;stroke:#006296;stroke-width:2.63027" />
          <path
             d="M 67.1451,65.0135 39.8273,82.1572"
             transform="matrix(1,0,0,1.00624,301,316)"
             id="path3909"
             inkscape:connector-curvature="0"
             style="fill:none;stroke:#006296;stroke-width:2.63027" />
          <path
             d="m -66.0729,-69.5797 c 0,-1.7092 1.4331,-3.0948 3.201,-3.0948 1.7678,0 3.2009,1.3856 3.2009,3.0948 0,1.7092 -1.4331,3.0948 -3.2009,3.0948 -1.7679,0 -3.201,-1.3856 -3.201,-3.0948 z"
             transform="matrix(4.3984e-8,-1.00624,-1,-4.37114e-8,301,316)"
             id="path3911"
             inkscape:connector-curvature="0"
             style="fill:none;stroke:#006296;stroke-width:2.63027;stroke-linejoin:round" />
          <path
             d="m -86.2415,-36.9807 c 0,-1.7092 1.4331,-3.0948 3.201,-3.0948 1.7678,0 3.2009,1.3856 3.2009,3.0948 0,1.7092 -1.4331,3.0947 -3.2009,3.0947 -1.7679,0 -3.201,-1.3855 -3.201,-3.0947 z"
             transform="matrix(4.3984e-8,-1.00624,-1,-4.37114e-8,301,316)"
             id="path3913"
             inkscape:connector-curvature="0"
             style="fill:none;stroke:#006296;stroke-width:2.63027;stroke-linejoin:round" />
          <path
             d="M 6.9894,22.7817 34.2349,6.23697"
             transform="matrix(1,0,0,1.00624,301,316)"
             id="path3915"
             inkscape:connector-curvature="0"
             style="fill:none;stroke:#006296;stroke-width:2.63027" />
          <path
             d="m 21.4976,4.40991 c 0,-1.7092 1.4332,-3.09477 3.201,-3.09477 1.7679,0 3.201,1.38557 3.201,3.09477 0,1.7092 -1.4331,3.09478 -3.201,3.09478 -1.7678,0 -3.201,-1.38558 -3.201,-3.09478 z"
             transform="matrix(4.3984e-8,1.00624,1,-4.37114e-8,301,316)"
             id="path3917"
             inkscape:connector-curvature="0"
             style="fill:none;stroke:#006296;stroke-width:2.63027;stroke-linejoin:round" />
          <path
             d="M 4.32348,27.8038 4.17919,60.451"
             transform="matrix(1,0,0,1.00624,301,316)"
             id="path3919"
             inkscape:connector-curvature="0"
             style="fill:none;stroke:#006296;stroke-width:2.63027" />
          <path
             d="M 6.84465,65.252 34.1625,82.3956"
             transform="matrix(1,0,0,1.00624,301,316)"
             id="path3921"
             inkscape:connector-curvature="0"
             style="fill:none;stroke:#006296;stroke-width:2.63027" />
          <path
             d="m 66.3114,-4.40991 c 0,1.7092 -1.4331,3.09477 -3.201,3.09477 -1.7679,0 -3.201,-1.38557 -3.201,-3.09477 0,-1.7092 1.4332,-3.09478 3.201,-3.09478 1.7679,0 3.201,1.38558 3.201,3.09478 z"
             transform="matrix(-4.3984e-8,1.00624,-1,-4.37114e-8,301,316)"
             id="path3923"
             inkscape:connector-curvature="0"
             style="fill:none;stroke:#006296;stroke-width:2.63027;stroke-linejoin:round" />
          <path
             d="m 17.6464,107.04 v 17.448 3.855"
             transform="matrix(1,0,0,1.00624,317.892,231.679)"
             id="path3925"
             inkscape:connector-curvature="0"
             style="fill:none;stroke:#006296;stroke-width:2.29101992" />
          <path
             d="m -127.836,-0.429246 c 0,-2.029534 1.436,-3.842384 3.594,-4.536524 2.156,-0.69415 4.575,-0.12136 6.051,1.43336 1.475,1.55472 1.694,3.759363 0.546,5.517"
             transform="matrix(-4.3984e-8,-1.00624,1,-4.37114e-8,317.892,231.679)"
             id="path3927"
             inkscape:connector-curvature="0"
             style="fill:none;stroke:#006296;stroke-width:2.29101992;stroke-linejoin:round" />
          <path
             d="m 8.6378,110.119 c -1.01476,-1.989 -0.82189,-4.483 0.48266,-6.242 1.30464,-1.759 3.44224,-2.406 5.34934,-1.622 1.9072,0.786 3.1766,2.836 3.1766,5.133"
             transform="matrix(1,0,0,1.00624,317.892,231.679)"
             id="path3929"
             inkscape:connector-curvature="0"
             style="fill:none;stroke:#006296;stroke-width:2.29101992;stroke-linejoin:round" />
          <path
             d="m -111.697,63.4085 c 0,-2.3945 1.593,-4.5332 3.986,-5.3521 2.392,-0.819 5.074,-0.1432 6.711,1.691 1.6362,1.8342 1.8782,4.4352 0.605,6.5089"
             transform="matrix(0.398549,-0.785806,0.734053,0.482436,317.892,231.679)"
             id="path3931"
             inkscape:connector-curvature="0"
             style="fill:none;stroke:#006296;stroke-width:2.62052011;stroke-linejoin:round" />
          <path
             d="M 17.6452,148.598 V 131.15 127.294"
             transform="matrix(1,0,0,1.00624,317.892,231.679)"
             id="path3933"
             inkscape:connector-curvature="0"
             style="fill:none;stroke:#006296;stroke-width:2.29101992" />
          <path
             d="m -127.801,0.430523 c 0,2.029537 -1.436,3.842377 -3.594,4.536517 -2.158,0.69415 -4.576,0.12136 -6.051,-1.43335 -1.476,-1.55472 -1.694,-3.759364 -0.547,-5.517"
             transform="matrix(4.3984e-8,-1.00624,-1,-4.37114e-8,317.892,231.679)"
             id="path3935"
             inkscape:connector-curvature="0"
             style="fill:none;stroke:#006296;stroke-width:2.29101992;stroke-linejoin:round" />
          <path
             d="m 8.63651,-145.52 c -1.01476,-1.988 -0.82189,-4.482 0.48272,-6.24 1.30457,-1.759 3.44217,-2.407 5.34937,-1.622 1.9071,0.785 3.1765,2.836 3.1765,5.132"
             transform="matrix(1,0,0,-1.00624,317.892,231.679)"
             id="path3937"
             inkscape:connector-curvature="0"
             style="fill:none;stroke:#006296;stroke-width:2.29101992;stroke-linejoin:round" />
          <path
             d="m 133.814,-69.8915 c 0,-2.3944 1.592,-4.5332 3.985,-5.3521 2.392,-0.819 5.074,-0.1432 6.711,1.691 1.636,1.8343 1.878,4.4353 0.605,6.5089"
             transform="matrix(0.398549,0.785806,0.734053,-0.482436,317.892,231.679)"
             id="path3939"
             inkscape:connector-curvature="0"
             style="fill:none;stroke:#006296;stroke-width:2.62052011;stroke-linejoin:round" />
          <path
             d="m 17.6464,107.04 v 17.448 3.855"
             transform="matrix(-1,-8.74228e-8,-8.7968e-8,1.00624,358.42,231.736)"
             id="path3941"
             inkscape:connector-curvature="0"
             style="fill:none;stroke:#006296;stroke-width:2.29101992" />
          <path
             d="m 127.836,0.429246 c 0,2.029534 -1.436,3.842384 -3.594,4.536524 -2.156,0.69415 -4.575,0.12136 -6.051,-1.43336 -1.475,-1.55472 -1.694,-3.759363 -0.546,-5.517"
             transform="matrix(4.3984e-8,1.00624,1,-4.37114e-8,358.42,231.736)"
             id="path3943"
             inkscape:connector-curvature="0"
             style="fill:none;stroke:#006296;stroke-width:2.29101992;stroke-linejoin:round" />
          <path
             d="m 8.6378,110.119 c -1.01476,-1.989 -0.82189,-4.483 0.48266,-6.242 1.30464,-1.759 3.44224,-2.406 5.34934,-1.622 1.9072,0.786 3.1766,2.836 3.1766,5.133"
             transform="matrix(-1,-8.74228e-8,-8.7968e-8,1.00624,358.42,231.736)"
             id="path3945"
             inkscape:connector-curvature="0"
             style="fill:none;stroke:#006296;stroke-width:2.29101992;stroke-linejoin:round" />
          <path
             d="m -111.697,63.4085 c 0,-2.3945 1.593,-4.5332 3.986,-5.3521 2.392,-0.819 5.074,-0.1432 6.711,1.691 1.6362,1.8342 1.8782,4.4352 0.605,6.5089"
             transform="matrix(-0.398549,-0.785806,-0.734053,0.482436,358.42,231.736)"
             id="path3947"
             inkscape:connector-curvature="0"
             style="fill:none;stroke:#006296;stroke-width:2.62052011;stroke-linejoin:round" />
          <path
             d="M 17.6452,148.598 V 131.15 127.294"
             transform="matrix(-1,-8.74228e-8,-8.7968e-8,1.00624,358.42,231.736)"
             id="path3949"
             inkscape:connector-curvature="0"
             style="fill:none;stroke:#006296;stroke-width:2.29101992" />
          <path
             d="m 127.801,-0.430523 c 0,-2.029537 1.436,-3.842377 3.594,-4.536517 2.158,-0.69415 4.576,-0.12136 6.051,1.43335 1.476,1.55472 1.694,3.759364 0.547,5.517"
             transform="matrix(-4.3984e-8,1.00624,-1,-4.37114e-8,358.42,231.736)"
             id="path3951"
             inkscape:connector-curvature="0"
             style="fill:none;stroke:#006296;stroke-width:2.29101992;stroke-linejoin:round" />
          <path
             d="m 8.63651,-145.52 c -1.01476,-1.988 -0.82189,-4.482 0.48272,-6.24 1.30457,-1.759 3.44217,-2.407 5.34937,-1.622 1.9071,0.785 3.1765,2.836 3.1765,5.132"
             transform="matrix(-1,-8.74228e-8,8.7968e-8,-1.00624,358.42,231.736)"
             id="path3953"
             inkscape:connector-curvature="0"
             style="fill:none;stroke:#006296;stroke-width:2.29101992;stroke-linejoin:round" />
          <path
             d="m 133.814,-69.8915 c 0,-2.3944 1.592,-4.5332 3.985,-5.3521 2.392,-0.819 5.074,-0.1432 6.711,1.691 1.636,1.8343 1.878,4.4353 0.605,6.5089"
             transform="matrix(-0.398549,0.785806,-0.734053,-0.482436,358.42,231.736)"
             id="path3955"
             inkscape:connector-curvature="0"
             style="fill:none;stroke:#006296;stroke-width:2.62052011;stroke-linejoin:round" />
        </g>
      </g>
    </g>
  </g>
</svg>
